<svg width="178" height="216" viewBox="0 0 178 216" fill="none" xmlns="http://www.w3.org/2000/svg">
<path fill-rule="evenodd" clip-rule="evenodd" d="M88.7169 0H12.0012C4.89297 0 -0.657289 6.14427 0.0629724 13.2159L19.6185 205.216C20.2424 211.341 25.4002 216 31.5568 216H88.7169H145.877C152.034 216 157.191 211.341 157.815 205.216L177.371 13.2159C178.091 6.14427 172.541 0 165.433 0H88.7169Z" fill="#EEF2F6"/>
<mask id="mask0_1_17" style="mask-type:alpha" maskUnits="userSpaceOnUse" x="0" y="0" width="178" height="216">
<path fill-rule="evenodd" clip-rule="evenodd" d="M88.7169 0H12.0012C4.89297 0 -0.657289 6.14427 0.0629724 13.2159L19.6185 205.216C20.2424 211.341 25.4002 216 31.5568 216H88.7169H145.877C152.034 216 157.191 211.341 157.815 205.216L177.371 13.2159C178.091 6.14427 172.541 0 165.433 0H88.7169Z" fill="#EEF2F6"/>
</mask>
<g mask="url(#mask0_1_17)">
<path d="M-37 63L222 77V235H-37V63Z" fill="#3393FF"/>
</g>
</svg>
