<?xml version="1.0" encoding="UTF-8" standalone="no"?>
<svg
   width="58.180412"
   height="89"
   viewBox="0 0 58.180412 89"
   fill="none"
   version="1.1"
   id="svg21"
   xmlns="http://www.w3.org/2000/svg"
   xmlnsSvg="http://www.w3.org/2000/svg">
  <g
     clip-path="url(#clip0_1_117)"
     id="g14"
     transform="translate(-0.88714105,-9.1552698e-5)">
    <path
       id="path12"
       style="fill:#1f487e;fill-opacity:1"
       d="M 57.173661,24.286842 C 42.469187,24.164658 28.003483,21.067621 13.322073,20.541309 9.7395316,20.287912 6.1292641,20.458525 2.566239,19.958717 4.1115757,36.115415 5.8087022,52.256061 7.6827666,68.377994 8.3317514,73.427966 8.6512796,78.537248 9.5329912,83.545387 10.869446,87.758801 15.607241,89.603153 19.701868,89 c 8.21246,-0.07177 16.430726,0.164172 24.637976,-0.138672 4.57705,-0.663563 6.879082,-5.494964 6.767154,-9.71475 2.052998,-18.283268 4.138728,-36.562709 6.066663,-54.859736 z" />
    <path
       id="path3330"
       style="fill:#829399;fill-opacity:1"
       d="M 50.910156,-0.06054687 C 36.634907,0.11448998 22.346891,-0.11320344 8.0683594,0.04882812 2.9788976,0.38751061 -0.16973619,6.1340975 1.2137695,10.794089 c 0.4131185,3.678663 0.826237,7.357326 1.2393555,11.035989 7.360206,0.619172 14.776358,0.579832 22.128481,1.417317 10.81993,1.037586 21.580997,2.873742 32.478941,2.910804 0.64416,-6.222188 1.509058,-12.431824 2.007006,-18.6623417 -0.202016,-4.1316351 -4.065769,-7.58429097 -8.157397,-7.55640417 z" />
  </g>
  <defs
     id="defs19">
    <clipPath
       id="clip0_1_117">
      <rect
         x="6.10352e-05"
         y="9.1552698e-05"
         width="60"
         height="89"
         rx="8"
         fill="#ff0000"
         id="rect16" />
    </clipPath>
  </defs>
</svg>
